<svg width="20" height="20" viewBox="0 0 20 20" fill="none" xmlns="http://www.w3.org/2000/svg">
<mask id="mask0_1290_4032" style="mask-type:alpha" maskUnits="userSpaceOnUse" x="0" y="0" width="20" height="20">
<rect width="20" height="20" fill="#D9D9D9"/>
</mask>
<g mask="url(#mask0_1290_4032)">
<path d="M14.1667 14.1667C14.5139 14.1667 14.8089 14.045 15.0517 13.8017C15.295 13.5589 15.4167 13.2639 15.4167 12.9167C15.4167 12.5695 15.295 12.2745 15.0517 12.0317C14.8089 11.7884 14.5139 11.6667 14.1667 11.6667C13.8195 11.6667 13.5245 11.7884 13.2817 12.0317C13.0384 12.2745 12.9167 12.5695 12.9167 12.9167C12.9167 13.2639 13.0384 13.5589 13.2817 13.8017C13.5245 14.045 13.8195 14.1667 14.1667 14.1667ZM14.1667 16.6667C14.5973 16.6667 14.9931 16.5659 15.3542 16.3642C15.7153 16.1631 16.007 15.8959 16.2292 15.5625C15.9237 15.382 15.5973 15.2431 15.25 15.1459C14.9028 15.0486 14.5417 15 14.1667 15C13.7917 15 13.4306 15.0486 13.0834 15.1459C12.7362 15.2431 12.4098 15.382 12.1042 15.5625C12.3264 15.8959 12.6181 16.1631 12.9792 16.3642C13.3403 16.5659 13.7362 16.6667 14.1667 16.6667ZM10 18.3334C8.06949 17.8472 6.47587 16.7395 5.21921 15.01C3.96199 13.2811 3.33337 11.3611 3.33337 9.25002V4.16669L10 1.66669L16.6667 4.16669V8.89585C16.4028 8.78474 16.132 8.68391 15.8542 8.59335C15.5764 8.50335 15.2917 8.43752 15 8.39585V5.33335L10 3.45835L5.00004 5.33335V9.25002C5.00004 9.9028 5.08671 10.5556 5.26004 11.2084C5.43393 11.8611 5.67726 12.4828 5.99004 13.0734C6.30226 13.6634 6.6806 14.2084 7.12504 14.7084C7.56949 15.2084 8.06254 15.625 8.60421 15.9584C8.75699 16.4028 8.95837 16.8264 9.20837 17.2292C9.45837 17.632 9.7431 17.9931 10.0625 18.3125C10.0487 18.3125 10.0384 18.3161 10.0317 18.3234C10.0245 18.33 10.0139 18.3334 10 18.3334ZM14.1667 18.3334C13.0139 18.3334 12.0314 17.9272 11.2192 17.115C10.4064 16.3022 10 15.3195 10 14.1667C10 13.0139 10.4064 12.0311 11.2192 11.2184C12.0314 10.4061 13.0139 10 14.1667 10C15.3195 10 16.3023 10.4061 17.115 11.2184C17.9273 12.0311 18.3334 13.0139 18.3334 14.1667C18.3334 15.3195 17.9273 16.3022 17.115 17.115C16.3023 17.9272 15.3195 18.3334 14.1667 18.3334Z" fill="white"/>
</g>
</svg>
