<svg width="20" height="20" viewBox="0 0 20 20" fill="none" xmlns="http://www.w3.org/2000/svg">
<g clip-path="url(#clip0_1290_3975)">
<path d="M8.35164 11.7322C8.63891 11.7322 8.92075 11.667 9.17685 11.543L12.0387 10.1568L9.86927 9.1074L8.34758 9.84486L4.55353 8.00839L8.34758 6.13015L14.3097 9.0578L16.6254 8.00839L9.27441 4.47903C8.98579 4.33937 8.66872 4.26758 8.34622 4.26758C8.02373 4.26758 7.7053 4.34067 7.41804 4.47903L0.373291 8.00839L7.5156 11.543C7.77576 11.6683 8.06167 11.7335 8.35164 11.7322Z" fill="white"/>
<path d="M8.34487 2.04088L14.4601 4.74011L16.6254 3.6907L9.26086 0.38584C8.97631 0.24879 8.6633 0.177002 8.34487 0.177002C8.02644 0.177002 7.71343 0.24879 7.42888 0.38584L0.373291 3.6907L2.51016 4.75316L8.34487 2.04088Z" fill="white"/>
<path d="M8.34487 13.9603L14.4601 11.2611L16.6254 12.3105L9.25951 15.6154C8.97495 15.7524 8.66194 15.8242 8.34351 15.8242C8.02509 15.8242 7.71208 15.7524 7.42752 15.6154L0.373291 12.3105L2.51016 11.248L8.34487 13.9603Z" fill="white"/>
</g>
<defs>
<clipPath id="clip0_1290_3975">
<rect width="16.2535" height="15.6459" fill="white" transform="translate(0.373291 0.177002)"/>
</clipPath>
</defs>
</svg>
