<svg width="20" height="20" viewBox="0 0 20 20" fill="none" xmlns="http://www.w3.org/2000/svg">
<mask id="mask0_1290_4008" style="mask-type:alpha" maskUnits="userSpaceOnUse" x="0" y="0" width="20" height="20">
<rect width="20" height="20" fill="#D9D9D9"/>
</mask>
<g mask="url(#mask0_1290_4008)">
<path d="M7.49996 18.3334C6.6944 18.3334 5.93746 18.1806 5.22913 17.875C4.52079 17.5695 3.90274 17.1528 3.37496 16.625C2.84718 16.0972 2.43051 15.4792 2.12496 14.7709C1.8194 14.0625 1.66663 13.3056 1.66663 12.5C1.66663 11.375 1.95829 10.3472 2.54163 9.41669C3.12496 8.48613 3.88885 7.7778 4.83329 7.29169C5.11107 6.75002 5.45496 6.27419 5.86496 5.86419C6.2744 5.45474 6.74996 5.11113 7.29163 4.83335C7.74996 3.88891 8.45135 3.12502 9.39579 2.54169C10.3402 1.95835 11.375 1.66669 12.5 1.66669C13.3055 1.66669 14.0625 1.81946 14.7708 2.12502C15.4791 2.43058 16.0972 2.84724 16.625 3.37502C17.1527 3.9028 17.5694 4.52085 17.875 5.22919C18.1805 5.93752 18.3333 6.69447 18.3333 7.50002C18.3333 8.68058 18.0416 9.72224 17.4583 10.625C16.875 11.5278 16.1111 12.2222 15.1666 12.7084C14.8888 13.25 14.545 13.7256 14.135 14.135C13.7255 14.545 13.25 14.8889 12.7083 15.1667C12.2222 16.1111 11.5138 16.875 10.5833 17.4584C9.65274 18.0417 8.62496 18.3334 7.49996 18.3334ZM7.49996 16.6667C7.95829 16.6667 8.3994 16.5972 8.82329 16.4584C9.24663 16.3195 9.63885 16.1111 9.99996 15.8334C9.1944 15.8334 8.43746 15.6806 7.72913 15.375C7.02079 15.0695 6.40274 14.6528 5.87496 14.125C5.34718 13.5972 4.93052 12.9792 4.62496 12.2709C4.3194 11.5625 4.16663 10.8056 4.16663 10C3.88885 10.3611 3.68052 10.7534 3.54163 11.1767C3.40274 11.6006 3.33329 12.0417 3.33329 12.5C3.33329 13.0834 3.4444 13.625 3.66663 14.125C3.88885 14.625 4.18746 15.0625 4.56246 15.4375C4.93746 15.8125 5.37496 16.1111 5.87496 16.3334C6.37496 16.5556 6.91663 16.6667 7.49996 16.6667ZM9.99996 14.1667C10.4583 14.1667 10.9063 14.0972 11.3441 13.9584C11.7813 13.8195 12.1805 13.6111 12.5416 13.3334C11.7222 13.3334 10.9583 13.1772 10.25 12.865C9.54163 12.5522 8.92357 12.132 8.39579 11.6042C7.86801 11.0764 7.44774 10.4584 7.13496 9.75002C6.82274 9.04169 6.66663 8.2778 6.66663 7.45835C6.38885 7.81947 6.18052 8.21863 6.04163 8.65585C5.90274 9.09363 5.83329 9.54169 5.83329 10C5.83329 10.5834 5.94107 11.125 6.15663 11.625C6.37163 12.125 6.67357 12.5625 7.06246 12.9375C7.43746 13.3264 7.87496 13.6286 8.37496 13.8442C8.87496 14.0592 9.41663 14.1667 9.99996 14.1667ZM12.5 11.6667C12.75 11.6667 12.9897 11.6459 13.2191 11.6042C13.448 11.5625 13.6805 11.5 13.9166 11.4167C14.2222 10.5834 14.2675 9.78113 14.0525 9.01002C13.8369 8.23947 13.4652 7.5903 12.9375 7.06252C12.4097 6.53474 11.7605 6.16308 10.99 5.94752C10.2188 5.73252 9.41663 5.7778 8.58329 6.08335C8.49996 6.31947 8.43746 6.55197 8.39579 6.78085C8.35413 7.0103 8.33329 7.25002 8.33329 7.50002C8.33329 8.08335 8.44079 8.62502 8.65579 9.12502C8.87135 9.62502 9.17357 10.0625 9.56246 10.4375C9.93746 10.8264 10.375 11.1286 10.875 11.3442C11.375 11.5592 11.9166 11.6667 12.5 11.6667ZM15.8333 10.0417C16.1111 9.68058 16.3194 9.28113 16.4583 8.84335C16.5972 8.40613 16.6666 7.95835 16.6666 7.50002C16.6666 6.91669 16.5591 6.37502 16.3441 5.87502C16.1286 5.37502 15.8263 4.93752 15.4375 4.56252C15.0625 4.17363 14.625 3.87141 14.125 3.65585C13.625 3.44085 13.0833 3.33335 12.5 3.33335C12.0138 3.33335 11.5591 3.4028 11.1358 3.54169C10.7119 3.68058 10.3194 3.88891 9.95829 4.16669C10.7777 4.16669 11.5416 4.3228 12.25 4.63502C12.9583 4.9478 13.5763 5.36808 14.1041 5.89585C14.6319 6.42363 15.0522 7.04169 15.365 7.75002C15.6772 8.45835 15.8333 9.22224 15.8333 10.0417Z" fill="white"/>
</g>
</svg>
