<svg width="20" height="20" viewBox="0 0 20 20" fill="none" xmlns="http://www.w3.org/2000/svg">
<mask id="mask0_1295_61429" style="mask-type:alpha" maskUnits="userSpaceOnUse" x="0" y="0" width="20" height="20">
<rect width="20" height="20" fill="#D9D9D9"/>
</mask>
<g mask="url(#mask0_1295_61429)">
<path d="M4.58329 18.3334C3.77774 18.3334 3.09024 18.0486 2.52079 17.4792C1.95135 16.9097 1.66663 16.2222 1.66663 15.4167C1.66663 14.6111 1.95135 13.9236 2.52079 13.3542C3.09024 12.7847 3.77774 12.5 4.58329 12.5C4.83329 12.5 5.07635 12.5313 5.31246 12.5938C5.54857 12.6563 5.77079 12.7431 5.97913 12.8542L9.16663 9.66669V7.37502C8.55552 7.19446 8.05552 6.85072 7.66663 6.34377C7.27774 5.83683 7.08329 5.25002 7.08329 4.58335C7.08329 3.7778 7.36802 3.0903 7.93746 2.52085C8.5069 1.95141 9.1944 1.66669 9.99996 1.66669C10.8055 1.66669 11.493 1.95141 12.0625 2.52085C12.6319 3.0903 12.9166 3.7778 12.9166 4.58335C12.9166 5.25002 12.7222 5.83683 12.3333 6.34377C11.9444 6.85072 11.4444 7.19446 10.8333 7.37502V9.66669L14.0416 12.8542C14.25 12.7431 14.4687 12.6563 14.6979 12.5938C14.927 12.5313 15.1666 12.5 15.4166 12.5C16.2222 12.5 16.9097 12.7847 17.4791 13.3542C18.0486 13.9236 18.3333 14.6111 18.3333 15.4167C18.3333 16.2222 18.0486 16.9097 17.4791 17.4792C16.9097 18.0486 16.2222 18.3334 15.4166 18.3334C14.6111 18.3334 13.9236 18.0486 13.3541 17.4792C12.7847 16.9097 12.5 16.2222 12.5 15.4167C12.5 15.1667 12.5312 14.9236 12.5937 14.6875C12.6562 14.4514 12.743 14.2292 12.8541 14.0209L9.99996 11.1667L7.14579 14.0209C7.2569 14.2292 7.34371 14.4514 7.40621 14.6875C7.46871 14.9236 7.49996 15.1667 7.49996 15.4167C7.49996 16.2222 7.21524 16.9097 6.64579 17.4792C6.07635 18.0486 5.38885 18.3334 4.58329 18.3334ZM15.4166 16.6667C15.7638 16.6667 16.059 16.5452 16.302 16.3021C16.5451 16.059 16.6666 15.7639 16.6666 15.4167C16.6666 15.0695 16.5451 14.7743 16.302 14.5313C16.059 14.2882 15.7638 14.1667 15.4166 14.1667C15.0694 14.1667 14.7743 14.2882 14.5312 14.5313C14.2882 14.7743 14.1666 15.0695 14.1666 15.4167C14.1666 15.7639 14.2882 16.059 14.5312 16.3021C14.7743 16.5452 15.0694 16.6667 15.4166 16.6667ZM9.99996 5.83335C10.3472 5.83335 10.6423 5.71183 10.8854 5.46877C11.1284 5.22571 11.25 4.93058 11.25 4.58335C11.25 4.23613 11.1284 3.94099 10.8854 3.69794C10.6423 3.45488 10.3472 3.33335 9.99996 3.33335C9.65274 3.33335 9.3576 3.45488 9.11454 3.69794C8.87149 3.94099 8.74996 4.23613 8.74996 4.58335C8.74996 4.93058 8.87149 5.22571 9.11454 5.46877C9.3576 5.71183 9.65274 5.83335 9.99996 5.83335ZM4.58329 16.6667C4.93052 16.6667 5.22565 16.5452 5.46871 16.3021C5.71177 16.059 5.83329 15.7639 5.83329 15.4167C5.83329 15.0695 5.71177 14.7743 5.46871 14.5313C5.22565 14.2882 4.93052 14.1667 4.58329 14.1667C4.23607 14.1667 3.94093 14.2882 3.69788 14.5313C3.45482 14.7743 3.33329 15.0695 3.33329 15.4167C3.33329 15.7639 3.45482 16.059 3.69788 16.3021C3.94093 16.5452 4.23607 16.6667 4.58329 16.6667Z" fill="white"/>
</g>
</svg>
