<svg width="20" height="20" viewBox="0 0 20 20" fill="none" xmlns="http://www.w3.org/2000/svg">
<mask id="mask0_1290_4000" style="mask-type:alpha" maskUnits="userSpaceOnUse" x="0" y="0" width="20" height="20">
<rect width="20" height="20" fill="#D9D9D9"/>
</mask>
<g mask="url(#mask0_1290_4000)">
<path d="M3.33329 16.6666C2.87496 16.6666 2.4826 16.5035 2.15621 16.1771C1.82982 15.8507 1.66663 15.4583 1.66663 15V4.99998C1.66663 4.54165 1.82982 4.14929 2.15621 3.8229C2.4826 3.49651 2.87496 3.33331 3.33329 3.33331H8.33329L9.99996 4.99998H16.6666C17.125 4.99998 17.5173 5.16317 17.8437 5.48956C18.1701 5.81595 18.3333 6.20831 18.3333 6.66665H9.31246L7.64579 4.99998H3.33329V15L5.33329 8.33331H19.5833L17.4375 15.4791C17.3264 15.8403 17.1215 16.1285 16.8229 16.3437C16.5243 16.559 16.1944 16.6666 15.8333 16.6666H3.33329ZM5.08329 15H15.8333L17.3333 9.99998H6.58329L5.08329 15Z" fill="white"/>
</g>
</svg>
