<svg width="20" height="20" viewBox="0 0 20 20" fill="none" xmlns="http://www.w3.org/2000/svg">
<mask id="mask0_1290_4024" style="mask-type:alpha" maskUnits="userSpaceOnUse" x="0" y="0" width="20" height="20">
<rect width="20" height="20" fill="#D9D9D9"/>
</mask>
<g mask="url(#mask0_1290_4024)">
<path d="M12.5 19.1666C12.0416 19.1666 11.6493 19.0035 11.3229 18.6771C10.9965 18.3507 10.8333 17.9583 10.8333 17.5C10.8333 17.1805 10.9097 16.8958 11.0625 16.6458C11.2152 16.3958 11.4166 16.1944 11.6666 16.0416V11.4375C11.4166 11.2847 11.2152 11.0868 11.0625 10.8437C10.9097 10.6007 10.8333 10.3194 10.8333 9.99998C10.8333 9.54165 10.9965 9.14929 11.3229 8.8229C11.6493 8.49651 12.0416 8.33331 12.5 8.33331C12.9583 8.33331 13.3507 8.49651 13.677 8.8229C14.0034 9.14929 14.1666 9.54165 14.1666 9.99998C14.1666 10.3194 14.0902 10.6007 13.9375 10.8437C13.7847 11.0868 13.5833 11.2847 13.3333 11.4375V13.8333L16.6666 12.7291V11.4375C16.4166 11.2847 16.2152 11.0868 16.0625 10.8437C15.9097 10.6007 15.8333 10.3194 15.8333 9.99998C15.8333 9.54165 15.9965 9.14929 16.3229 8.8229C16.6493 8.49651 17.0416 8.33331 17.5 8.33331C17.9583 8.33331 18.3507 8.49651 18.677 8.8229C19.0034 9.14929 19.1666 9.54165 19.1666 9.99998C19.1666 10.3194 19.0902 10.6007 18.9375 10.8437C18.7847 11.0868 18.5833 11.2847 18.3333 11.4375V13.9166L13.3333 15.5833V16.0416C13.5833 16.1944 13.7847 16.3958 13.9375 16.6458C14.0902 16.8958 14.1666 17.1805 14.1666 17.5C14.1666 17.9583 14.0034 18.3507 13.677 18.6771C13.3507 19.0035 12.9583 19.1666 12.5 19.1666ZM3.33329 16.6666C2.87496 16.6666 2.4826 16.5035 2.15621 16.1771C1.82982 15.8507 1.66663 15.4583 1.66663 15V4.99998C1.66663 4.54165 1.82982 4.14929 2.15621 3.8229C2.4826 3.49651 2.87496 3.33331 3.33329 3.33331H8.33329L9.99996 4.99998H16.6666C17.125 4.99998 17.5173 5.16317 17.8437 5.48956C18.1701 5.81595 18.3333 6.20831 18.3333 6.66665H9.31246L7.64579 4.99998H3.33329V15H9.16663V16.6666H3.33329Z" fill="white"/>
</g>
</svg>
